<svg width="46" height="46" viewBox="0 0 46 46" fill="none" xmlns="http://www.w3.org/2000/svg">
<g id="Free Plan Icon Container">
<path id="Shape" fill-rule="evenodd" clip-rule="evenodd" d="M18.2319 28.7027H44.4319C45.0896 28.7027 45.6228 28.1673 45.6228 27.5068V1.19595C45.6228 0.535443 45.0896 0 44.4319 0H18.2319C17.5742 0 17.041 0.535443 17.041 1.19595V27.5068C17.041 28.1673 17.5742 28.7027 18.2319 28.7027ZM43.241 26.3108H19.4228V2.39189H43.241V26.3108Z" fill="#3EE9E5"/>
<path id="Shape_2" fill-rule="evenodd" clip-rule="evenodd" d="M1.28386e-05 29.7696C0.0109567 38.4388 7.01574 45.459 15.6485 45.4524C19.7997 45.4492 23.7793 43.7885 26.7102 40.8363C29.6411 37.884 31.2827 33.8825 31.2732 29.7138C31.2535 21.0445 24.2416 14.0315 15.6089 14.0469C6.9761 14.0623 -0.010931 21.1003 1.28386e-05 29.7696ZM3.38966 24.6706C5.44219 19.6911 10.282 16.4459 15.6485 16.4507C22.943 16.4638 28.8587 22.3884 28.8914 29.7138C28.9107 35.1029 25.6922 39.972 20.7393 42.0466C15.7864 44.1213 10.0766 42.9921 6.27678 39.1865C2.47698 35.3809 1.33714 29.65 3.38966 24.6706Z" fill="#3EE9E5"/>
</g>
</svg>
