<svg width="545" height="378" viewBox="0 0 545 378" fill="none" xmlns="http://www.w3.org/2000/svg">
<path id="Path 2" opacity="0.25" d="M125.33 371.922L125.384 371.975L125.403 371.974L125.515 371.984L125.762 371.999L125.885 372.002L126.158 372L126.469 371.986L126.822 371.959L127.221 371.918L127.671 371.864L128.175 371.795L128.873 371.69L129.696 371.56L130.467 371.43L131.188 371.3C131.305 371.278 131.419 371.256 131.531 371.234L132.184 371.103L132.795 370.968C132.893 370.946 132.99 370.923 133.085 370.9L133.637 370.761C135.416 370.289 136.603 369.74 137.652 368.963L137.963 368.723L138.269 368.469C138.319 368.425 138.37 368.381 138.42 368.336L138.636 368.137L138.796 367.979L139.104 367.656L139.486 367.243L140.32 366.319L143.421 362.808L145.388 360.574L146.58 359.234L147.355 358.377L147.796 357.898L149.693 355.86L150.906 354.548L152.656 352.646L154.327 350.812L155.928 349.04L157.465 347.32L158.946 345.643L159.906 344.545L161.311 342.921L162.227 341.85L163.575 340.254L164.46 339.193L168.774 333.955L172.239 329.711L176.479 324.473L180.558 319.393L186.619 311.784L193.018 303.698L202.962 291.074L209.463 282.795L225.297 262.54L275.411 198.186L289.532 180.151L294.413 173.945L301.412 165.076L305.341 160.113L306.519 158.642L308.241 156.522L309.486 155.012L311.312 152.83L313.282 150.51L316.114 147.221L319.387 143.462L354.244 103.663L364.628 91.8741L371.212 84.4555L375.04 80.1729L380.163 74.4841L384.092 70.1575L387.078 66.8907L390.538 63.1268L392.237 61.2873L392.993 60.4806L393.747 59.6862L394.501 58.9031L395.256 58.1301L396.014 57.3663L396.776 56.6106L397.542 55.8619L398.314 55.1192L399.486 54.014L400.279 53.2817L401.081 52.5516L401.894 51.8228L402.72 51.0941L403.56 50.3646L404.414 49.6332L405.284 48.8988L406.172 48.1604L407.077 47.4169L408.472 46.2899L409.429 45.5291L410.408 44.7596L411.92 43.5866L413.49 42.3879L414.57 41.5728L416.244 40.3236L417.985 39.0392L419.185 38.1617L420.418 37.266L422.332 35.886L424.327 34.459L428.363 31.5965L429.28 30.9312L432.041 28.882L432.832 28.2989L433.935 27.4973L434.62 27.008L435.27 26.5515L435.891 26.1253L436.486 25.7268C436.583 25.6626 436.68 25.5993 436.775 25.5371L437.34 25.1752L437.891 24.8344C437.982 24.7792 438.072 24.7247 438.162 24.671L438.7 24.3569L439.234 24.0574L439.77 23.7698C439.859 23.7227 439.949 23.676 440.039 23.6296L440.585 23.3549L441.144 23.0856C441.238 23.041 441.333 22.9965 441.429 22.9521C445.37 21.1262 448.297 20.9386 450.32 23.1524C451.264 24.1852 451.656 25.103 451.835 26.702L451.881 27.1781C451.887 27.2608 451.894 27.3452 451.9 27.4314L451.931 27.9708L451.955 28.5577L452.02 30.8528L452.094 32.2816L452.189 33.9157C452.336 36.6798 452.306 38.5571 451.975 40.5236L451.848 41.2759L451.593 42.7366L451.339 44.142L451.083 45.4954C451.04 45.7168 450.998 45.9362 450.955 46.1537L450.695 47.4357L450.431 48.6746C450.164 49.893 449.889 51.0518 449.601 52.1667L449.308 53.2676C448.712 55.4425 448.055 57.4628 447.294 59.454L446.847 60.5953L446.465 61.5438L445.947 62.7898L445.547 63.7221L445.133 64.6622L444.701 65.6192L444.089 66.937L443.599 67.9681L442.895 69.4172L442.325 70.5712L441.281 72.649L440.351 74.4743L436.464 82.0273L435.655 83.6261L434.807 85.3315L434.294 86.3839L433.928 87.149L433.435 88.1958L432.943 89.2602L431.498 92.4282L430.048 95.6279L428.101 99.9555L426.132 104.368L424.133 108.881L421.582 114.688L419.49 119.487L416.799 125.701L414.576 130.866L413.439 133.519C413.323 133.789 413.205 134.061 413.083 134.338L412.71 135.177L412.315 136.043L411.897 136.94L411.454 137.874L410.737 139.355L409.95 140.947L408.933 142.968L404.668 151.351L403.939 152.809L402.904 154.91C402.793 155.138 402.683 155.364 402.574 155.589L401.936 156.917L401.327 158.208L400.745 159.464C400.65 159.671 400.557 159.876 400.464 160.08L399.922 161.29C399.833 161.489 399.746 161.687 399.66 161.884L399.154 163.053L398.673 164.199C398.516 164.577 398.363 164.952 398.213 165.324L397.775 166.432C397.562 166.982 397.356 167.527 397.157 168.067L396.769 169.143C396.706 169.322 396.643 169.5 396.581 169.678L396.22 170.744C396.161 170.921 396.103 171.098 396.045 171.275C392.255 182.947 392.267 192.281 396.813 199.873L396.95 200.099L397.017 200.124L397.102 200.149L397.314 200.202L397.774 200.288L398.474 200.39C404.413 201.243 411.986 199.356 416.789 195.883L417.312 195.5L418.073 194.923L418.692 194.442L419.579 193.737L420.538 192.959L422.107 191.66L423.833 190.204L426.038 188.308L428.091 186.519L430.671 184.244L433.446 181.77L436.412 179.103L441.45 174.529L444.385 171.842L450.643 166.077L454.523 162.48L459.522 157.821L468.203 149.682L495.29 124.139L496.425 123.112L497.572 122.086L498.73 121.062L499.897 120.042L501.071 119.028L502.25 118.02L503.434 117.021C503.631 116.856 503.829 116.69 504.026 116.525L505.213 115.542L506.4 114.571C506.598 114.41 506.795 114.25 506.993 114.09L508.177 113.14C508.374 112.983 508.57 112.827 508.767 112.671L509.945 111.746C510.14 111.593 510.336 111.441 510.531 111.29L511.699 110.393L512.858 109.517C514.012 108.651 515.15 107.819 516.267 107.028L517.375 106.25L518.467 105.5C518.648 105.378 518.827 105.256 519.006 105.136L520.07 104.432C522.003 103.17 523.832 102.071 525.514 101.176L526.426 100.702L527.312 100.252L528.163 99.8319C533.443 97.2618 536.733 96.4313 540.976 97.1034C542.33 97.3179 543.147 98.1864 543.558 99.221C543.748 99.7017 543.834 100.196 543.847 100.67L543.871 101.353L543.899 101.892L543.972 102.974L544.142 105.168L544.203 106.06L544.252 106.895L544.286 107.681L544.305 108.424C544.338 110.47 544.183 112.057 543.763 113.784L543.654 114.228L543.431 115.107L543.2 115.978L542.96 116.844L542.709 117.713C542.667 117.859 542.623 118.004 542.58 118.15L542.31 119.033L542.026 119.931C541.977 120.082 541.928 120.234 541.878 120.387L541.569 121.319L541.241 122.28L540.893 123.276L540.524 124.313L539.926 125.955L539.496 127.116L537.44 132.583L536.845 134.205L536.574 134.957C533.811 142.699 532.557 148.502 532.737 154.663L532.755 155.195L533.333 155.25L533.932 155.301L534.468 155.337C535.564 155.396 536.263 155.344 536.885 155.16C537.004 155.125 537.125 155.072 537.264 154.989L537.44 154.874L537.64 154.724L537.869 154.536C537.91 154.501 537.953 154.464 537.997 154.426L538.282 154.17L538.796 153.689L539.325 153.19L539.617 152.922L539.881 152.689L540.131 152.479L540.386 152.277L540.519 152.175L544.135 156.963L543.985 157.08L543.746 157.28L543.562 157.445L543.085 157.89L542.935 158.033C541.16 159.724 540.227 160.428 538.587 160.913C536.94 161.401 535.471 161.452 533.213 161.263L531.343 161.091L530.822 161.052L530.474 161.034C530.024 161.014 529.563 160.935 529.1 160.757C527.998 160.333 527.076 159.457 526.935 157.979C526.17 149.916 527.419 142.932 530.669 133.658L531.061 132.555L531.814 130.498L533.865 125.043L534.478 123.385L534.855 122.344L535.38 120.868L535.703 119.933L536.007 119.03L536.293 118.155L536.564 117.303L536.819 116.468L537.062 115.644L537.293 114.828L537.514 114.013L537.727 113.194L537.933 112.366C538.22 111.187 538.33 110.011 538.301 108.394L538.283 107.766C538.279 107.657 538.275 107.547 538.27 107.434L538.233 106.734L538.185 105.98L537.982 103.328L537.951 102.911L537.734 102.925C536.129 103.043 534.421 103.568 532.154 104.588L531.457 104.909L530.723 105.26L529.951 105.641C529.819 105.708 529.685 105.775 529.549 105.844L528.728 106.265C526.776 107.276 524.559 108.63 522.174 110.237L521.142 110.941C520.447 111.42 519.74 111.919 519.023 112.435L517.939 113.222L516.841 114.034C516.657 114.171 516.473 114.309 516.288 114.448L515.173 115.294L514.048 116.16L512.916 117.045L511.777 117.948L510.634 118.866C510.443 119.021 510.252 119.176 510.061 119.331L508.914 120.271L507.767 121.222L506.622 122.184C506.431 122.345 506.24 122.506 506.05 122.668L504.341 124.132L503.21 125.115L502.087 126.102L500.974 127.092L499.872 128.082L499.207 128.691L472.218 154.142L461.566 164.122L456.319 168.998L450.852 174.049L446.246 178.275L442.409 181.769L438.388 185.399L435.082 188.352L433.147 190.064L430.609 192.285L428.597 194.024L427.036 195.354L425.864 196.339L424.761 197.254L423.48 198.298L422.535 199.051L421.873 199.568L421.251 200.045L420.669 200.479L420.305 200.746C414.371 205.036 405.486 207.308 398.091 206.392L397.567 206.321L396.784 206.206L396.534 206.163C394.493 205.8 392.99 205.09 391.952 203.426C386.081 194.008 385.991 182.812 390.339 169.422C390.583 168.671 390.837 167.921 391.103 167.166L391.512 166.032L391.94 164.888C392.159 164.314 392.385 163.736 392.62 163.151L393.099 161.973L393.602 160.777L394.128 159.558L394.678 158.314C394.772 158.105 394.867 157.894 394.963 157.682L395.552 156.395L396.169 155.076L396.814 153.721C396.924 153.492 397.035 153.261 397.147 153.029L397.837 151.615L398.928 149.413L400.587 146.134L404.023 139.381L404.573 138.283L405.335 136.742L405.804 135.778L406.244 134.86L406.657 133.982L407.045 133.139L407.412 132.328L407.757 131.542L411.292 123.32L413.458 118.314L415.569 113.466L417.632 108.758L419.654 104.174L420.652 101.924L422.628 97.4971L424.582 93.1545L426.521 88.8801L427.806 86.071L428.376 84.852L428.82 83.9231L429.281 82.9716L429.772 81.9771L430.51 80.502L431.796 77.9774L434.745 72.2564L435.676 70.4349L436.52 68.7644L437.467 66.8572L437.816 66.1425L438.151 65.4514L438.626 64.4534L439.217 63.1817L439.497 62.5653L439.768 61.9584L440.16 61.0604L440.539 60.1695L440.787 59.5752L441.031 58.9776C441.193 58.5776 441.354 58.1737 441.515 57.7625C442.522 55.1913 443.341 52.5486 444.082 49.4992L444.341 48.4056C444.554 47.4792 444.761 46.5142 444.966 45.5022L445.21 44.2645L445.452 42.9784L445.694 41.6404L445.936 40.2475C445.977 40.0105 446.017 39.7712 446.058 39.5293C446.223 38.5453 446.287 37.5273 446.269 36.2206L446.252 35.4776L446.219 34.6682L446.031 31.2509L445.999 30.35L445.961 28.8252L445.935 28.2134L445.909 27.8584L445.887 27.6582L445.8 27.6817C445.383 27.7965 444.848 27.9931 444.2 28.283L443.951 28.3961L443.473 28.6224L443.004 28.8542C442.927 28.8934 442.849 28.933 442.772 28.9729L442.31 29.2174C442.233 29.2591 442.156 29.3012 442.079 29.3438L441.614 29.6065L441.142 29.8843L440.66 30.1796L440.163 30.4948L439.648 30.8323L439.11 31.1946L438.545 31.5839L437.95 32.0028L436.991 32.6917L435.568 33.7361L433.245 35.4628L432.223 36.2105L431.302 36.8689L429.203 38.3542L426.538 40.2532L425.261 41.1701L422.811 42.944L421.635 43.803L419.931 45.0595L418.294 46.2805L416.721 47.4697L415.705 48.2465L414.715 49.0116L413.274 50.1399L412.342 50.8805L411.431 51.6131L410.54 52.3387L409.668 53.0583L408.814 53.773L407.977 54.4838L407.155 55.1917L406.348 55.8978L405.553 56.603L404.771 57.3084L403.999 58.015L403.238 58.7239L402.484 59.4361L401.368 60.5127L400.632 61.2376L399.899 61.9693L399.171 62.7089L398.444 63.4575L397.719 64.216L396.993 64.9854L396.266 65.7669L393.432 68.8422L390.648 71.8763L388.948 73.7367L383.896 79.3022L380.986 82.5311L377.233 86.7199L371.654 92.9895L364.621 100.949L353.927 113.125L331.397 138.87L323.543 147.824L320.356 151.488L318.178 154.017L316.751 155.69L314.639 158.2L313.151 159.996L312.188 161.175L311.442 162.095L310.45 163.33L309.45 164.587L300.986 175.298L294.013 184.159L279.237 203.035L225.924 271.491L214.184 286.499L199.21 305.538L190.459 316.597L187.186 320.708L183.722 325.04L180.788 328.689L178.651 331.332L173.769 337.326L171.193 340.463L169.077 343.025L168.176 344.105L167.264 345.187L165.873 346.818L164.446 348.469L163.472 349.584L162.476 350.713L160.937 352.442L159.337 354.219L158.233 355.436L156.516 357.313L154.1 359.931L151.879 362.321L151.148 363.129L148.82 365.759L145.793 369.192L144.46 370.682L143.508 371.722L143.005 372.249L142.713 372.54L142.633 372.615C140.43 374.641 138.227 375.806 134.647 376.688L133.937 376.856C133.694 376.911 133.445 376.964 133.189 377.017L132.404 377.173L131.577 377.325L130.706 377.474L129.646 377.642L129.037 377.731L128.452 377.808L127.892 377.871L127.355 377.92L126.841 377.954L126.349 377.974C123.141 378.054 121.349 377.105 119.947 374.444L119.739 374.032L119.537 373.593C119.504 373.518 119.47 373.442 119.437 373.364L119.241 372.886C119.209 372.804 119.176 372.72 119.144 372.636L118.952 372.116L118.762 371.568L118.574 370.991L118.386 370.384L118.197 369.748L118.007 369.082C117.049 365.651 116.539 361.956 116.417 358.002L116.299 353.964L116.223 351.026L116.178 349.109L116.12 346.296L116.074 343.554L116.049 341.764L116.03 340.004L116.016 338.273L116.006 335.73L116.009 333.248L116.025 330.825L116.055 328.458L116.083 326.91L116.117 325.386L116.157 323.884L116.204 322.403L116.258 320.944L116.318 319.505L116.385 318.086L116.459 316.685L116.541 315.303L116.629 313.938L116.725 312.59C116.741 312.366 116.758 312.143 116.775 311.921L116.882 310.596L116.997 309.286L117.119 307.99L117.249 306.708L117.387 305.438L117.533 304.179L117.687 302.932C117.714 302.725 117.74 302.519 117.767 302.313L117.934 301.081C117.962 300.876 117.991 300.672 118.02 300.469L118.199 299.251L118.387 298.041L118.583 296.838L118.788 295.642L119.002 294.453L119.225 293.268L119.457 292.088L119.699 290.912L119.949 289.739L120.209 288.569L120.479 287.399L120.758 286.231C120.853 285.842 120.949 285.452 121.047 285.063C129.158 252.819 141.16 219.474 157.377 182.613L158.492 180.085L159.608 177.573L160.352 175.905L161.098 174.241C162.343 171.47 163.595 168.712 164.866 165.941L166.848 161.647L168.39 158.338L170.595 153.65L172.537 149.565L174.533 145.401L176.244 141.86L178.359 137.513L181.675 130.76L185.184 123.682L188.062 117.92L192.877 108.346L198.583 97.0834L213.143 68.5375L216.46 62.0871L218.891 57.3969L221.37 52.6635L222.777 50.005L224.595 46.6049L225.703 44.5532L226.803 42.5331L228.133 40.1076L229.492 37.6515L230.133 36.507L230.929 35.1082L231.587 33.973L232.28 32.7978L233.011 31.5767L233.794 30.2871L235.328 27.798L237.708 23.9951L241.937 17.2705L243.652 14.503L244.583 12.9749L245.603 11.2744L246.711 9.38045L246.87 9.10116L226.315 23.8457L219.779 28.5656L215.011 32.0389L210.668 35.2352L208.407 36.916L205.387 39.1823L202.5 41.3761L200.495 42.9163L198.983 44.088L196.546 45.9937L195.237 47.0274L194.111 47.921L192.219 49.4321L189.109 51.9348L186.423 54.1079L183.763 56.2712L180.583 58.8726L176.324 62.3839L172.861 65.2611L168.402 68.9929L162.775 73.7409L157.78 77.986L148.455 85.9659L141.095 92.2997L130.062 101.829L113.034 116.552L110.537 118.703L108.436 120.486L101.89 125.946L99.6809 127.808L98.064 129.188L96.5675 130.484L95.5168 131.408L94.5217 132.296L93.5771 133.154L92.9728 133.711L92.1009 134.529L91.5403 135.065L90.9944 135.594L90.2 136.381L89.6844 136.902L89.1783 137.422L88.4333 138.204L87.7009 138.993L86.9759 139.793L86.4942 140.336L86.0119 140.887C83.5378 143.738 81.1535 146.508 78.7864 149.286L76.4721 152.01L73.6232 155.388L70.4242 159.214L67.5145 162.722L64.5144 166.365L60.998 170.664L56.4433 176.273L51.5404 182.35L43.6444 192.197L19.5526 222.417L15.7906 227.119L12.5097 231.205L8.79392 235.811L4.65469 240.914L0 237.128L3.8578 232.373L9.67911 225.149L20.5459 211.551L38.4152 189.129L45.2821 180.558L49.1633 175.736L55.0042 168.523L58.77 163.908L63.1372 158.6L66.5707 154.466L69.926 150.462L72.51 147.405L74.1474 145.479C76.0689 143.224 78.0016 140.973 79.984 138.682L81.7371 136.66L82.2484 136.08L83.0147 135.226L83.5275 134.666L84.0437 134.112L84.5648 133.561L85.3593 132.74L85.8998 132.193L86.7307 131.369L87.3004 130.815L88.1826 129.974L89.1028 129.115L89.7399 128.53L90.7352 127.63L91.7827 126.699L92.8877 125.731L94.4599 124.374L96.1566 122.93L98.963 120.572L104.212 116.198L106.054 114.641L107.229 113.634L137.838 87.1857L145.733 80.395L153.398 73.837L159.409 68.729L163.65 65.149L168.6 61.002L171.652 58.4631L176.783 54.2299L179.974 51.619L182.43 49.6216L185.232 47.3536C185.703 46.9739 186.175 46.5932 186.649 46.2111L188.08 45.0605C189.881 43.6139 191.638 42.2181 193.399 40.8358L195.301 39.3501L198.056 37.2218L201.299 34.7509L205.139 31.868L207.852 29.8549L212.214 26.6507L215.897 23.9691L224.196 17.979L241.951 5.25218L244.034 3.75069C245.682 2.56165 247.406 1.63996 249.959 0.477417C250.431 0.262379 251.028 0.0895584 251.582 0.0285671C252.148 -0.033892 252.688 -0.00561091 253.301 0.23144C254.643 0.750456 255.504 2.10888 255.297 3.61672C254.968 6.00592 254.192 8.34594 253.027 10.415C252.703 10.9896 252.387 11.5469 252.069 12.0994L251.106 13.7552L250.093 15.4577L248.986 17.2823L247.514 19.6657L245.781 22.4373L241.69 28.9368L239.559 32.3637L238.172 34.6381L237.455 35.8347L236.449 37.5474L235.979 38.3629L235.36 39.4532L234.737 40.5652L233.388 43.0035L232.505 44.6108L230.925 47.5109L229.089 50.9211L227.202 54.4684L225.221 58.236L221.976 64.482L218.269 71.6906L205.085 97.5333L200.362 106.839L195.962 115.557L191.854 123.751L188.842 129.804L186.376 134.794L183.621 140.412L180.985 145.838L178.808 150.36L176.353 155.511L174.311 159.843L172.317 164.116L170.686 167.646L169.397 170.459L168.438 172.565L167.317 175.043L166.573 176.696C165.334 179.454 164.103 182.224 162.869 185.029L162.081 186.825L160.525 190.4C159.754 192.182 158.993 193.955 158.242 195.721L156.754 199.242C143.971 229.665 134.208 257.745 127.263 284.958L126.866 286.527C126.771 286.902 126.679 287.277 126.587 287.652L126.318 288.779C126.274 288.967 126.231 289.155 126.187 289.343L125.932 290.472L125.686 291.604C125.646 291.793 125.606 291.982 125.566 292.171L125.334 293.309L125.11 294.45C125.073 294.641 125.037 294.832 125.001 295.023L124.791 296.173L124.589 297.329L124.395 298.492L124.21 299.662L124.033 300.841L123.864 302.029C123.837 302.227 123.81 302.426 123.783 302.626L123.627 303.829C123.601 304.03 123.576 304.232 123.551 304.434L123.407 305.653C123.383 305.857 123.36 306.062 123.337 306.267L123.204 307.505C123.183 307.712 123.161 307.92 123.14 308.128L123.019 309.385L122.905 310.656C122.886 310.869 122.868 311.083 122.85 311.297L122.747 312.591L122.651 313.9L122.562 315.225L122.48 316.568L122.405 317.929L122.337 319.309L122.276 320.708L122.221 322.126L122.173 323.566L122.131 325.027L122.095 326.511L122.066 328.017L122.033 330.321L122.014 332.68L122.007 335.098L122.01 336.743L122.025 339.262L122.041 340.977L122.076 343.605L122.105 345.395L122.179 349.068L122.247 351.908L122.298 353.843L122.414 357.817C122.522 361.312 122.967 364.534 123.786 367.468L124.035 368.346L124.259 369.109L124.46 369.765L124.639 370.32L124.799 370.783L124.94 371.159L125.025 371.366L125.103 371.54L125.175 371.684L125.241 371.799L125.302 371.887C125.312 371.9 125.321 371.911 125.33 371.922Z" fill="#093F68"/>
</svg>
